<?xml version="1.0" standalone="no"?>
<!DOCTYPE svg PUBLIC "-//W3C//DTD SVG 20010904//EN"
 "http://www.w3.org/TR/2001/REC-SVG-20010904/DTD/svg10.dtd">
<svg version="1.0" xmlns="http://www.w3.org/2000/svg"
 width="1280.000000pt" height="1187.000000pt" viewBox="0 0 1280.000000 1187.000000"
 preserveAspectRatio="xMidYMid meet">
<metadata>
Created by potrace 1.15, written by Peter Selinger 2001-2017
</metadata>
<g transform="translate(0.000000,1187.000000) scale(0.100000,-0.100000)"
fill="#201F2E" stroke="none">
<path d="M9250 11861 c-209 -68 -386 -348 -421 -668 -22 -198 14 -424 92 -574
79 -152 196 -264 310 -300 74 -23 126 -24 204 -4 183 48 307 222 396 555 33
122 33 347 1 470 -74 281 -161 428 -293 496 -47 25 -67 28 -159 31 -58 1 -116
-1 -130 -6z"/>
<path d="M10507 10709 c-55 -13 -94 -36 -149 -87 -58 -54 -103 -132 -152 -263
-102 -275 -105 -494 -13 -765 34 -97 52 -129 104 -185 58 -62 126 -89 227 -89
199 0 311 101 406 369 68 189 83 274 77 431 -6 132 -14 176 -61 315 -47 138
-122 231 -214 265 -56 21 -156 25 -225 9z"/>
<path d="M11559 9756 c-119 -42 -211 -158 -277 -346 -88 -251 -90 -458 -7
-699 59 -174 136 -243 272 -243 127 -1 217 73 303 247 75 155 127 402 114 544
-20 216 -92 413 -170 468 -58 42 -164 55 -235 29z"/>
<path d="M12422 8909 c-110 -55 -210 -237 -272 -494 -21 -90 -24 -222 -6 -320
47 -252 104 -327 251 -328 80 -1 139 28 203 98 148 162 240 542 187 775 -38
170 -75 239 -146 275 -44 23 -164 20 -217 -6z"/>
<path d="M11443 8279 c-83 -16 -154 -70 -229 -174 -105 -148 -154 -301 -161
-505 -6 -146 12 -263 58 -386 52 -138 175 -197 324 -155 40 12 65 29 125 90
152 152 234 383 234 651 0 172 -42 329 -109 409 -49 57 -152 87 -242 70z"/>
<path d="M10257 7560 c-131 -22 -236 -117 -316 -283 -156 -325 -171 -576 -50
-833 56 -118 133 -173 251 -182 176 -12 323 86 408 273 141 311 162 513 78
770 -50 157 -115 227 -231 252 -69 14 -72 14 -140 3z"/>
<path d="M11880 7283 c-61 -22 -164 -127 -223 -228 -105 -178 -150 -424 -112
-602 48 -226 117 -309 255 -307 80 1 126 23 191 91 106 110 183 265 219 444
37 180 20 360 -45 489 -57 112 -165 155 -285 113z"/>
<path d="M8915 6724 c-169 -42 -304 -170 -406 -389 -130 -278 -138 -529 -24
-780 51 -112 112 -169 215 -199 147 -44 307 4 429 127 75 77 88 95 140 186 80
142 141 365 141 514 -1 142 -64 341 -139 436 -17 21 -58 53 -92 71 -55 29 -73
33 -153 36 -50 2 -100 1 -111 -2z"/>
<path d="M7366 5768 c-75 -14 -184 -68 -253 -126 -103 -86 -225 -286 -283
-462 -72 -221 -64 -423 25 -606 56 -117 117 -184 203 -226 61 -30 76 -33 180
-37 124 -4 199 13 292 67 240 137 438 578 402 892 -24 207 -118 386 -239 457
-83 48 -208 64 -327 41z"/>
<path d="M11284 5639 c-126 -48 -242 -205 -317 -429 -36 -106 -57 -218 -57
-298 0 -136 63 -309 133 -366 34 -27 48 -31 112 -34 62 -4 82 0 128 21 162 74
296 299 352 590 21 111 19 190 -9 299 -26 102 -52 163 -83 190 -55 50 -169 62
-259 27z"/>
<path d="M5579 4661 c-174 -37 -317 -132 -444 -296 -166 -214 -238 -406 -239
-635 0 -103 4 -138 23 -200 95 -311 311 -458 614 -420 154 19 270 76 393 192
137 130 259 340 308 532 21 80 26 121 26 225 0 151 -14 213 -72 330 -76 152
-190 243 -343 276 -90 19 -160 18 -266 -4z"/>
<path d="M10715 3976 c-79 -25 -179 -109 -253 -213 -76 -109 -156 -348 -168
-509 -12 -151 48 -328 129 -382 37 -24 49 -27 131 -27 76 0 98 4 135 24 53 28
139 107 187 172 69 94 144 274 170 407 37 195 -8 435 -93 498 -60 44 -155 56
-238 30z"/>
<path d="M3511 3359 c-182 -36 -384 -153 -538 -312 -178 -184 -284 -392 -314
-613 -54 -406 179 -714 566 -748 143 -13 338 25 468 90 174 89 341 250 458
446 93 154 128 276 136 468 5 129 3 155 -16 230 -31 118 -73 192 -161 281 -84
86 -181 139 -284 158 -69 13 -251 13 -315 0z"/>
<path d="M1155 1829 c-284 -27 -566 -168 -795 -398 -178 -179 -291 -362 -339
-551 -26 -104 -29 -303 -6 -395 59 -232 255 -407 525 -470 86 -19 287 -20 382
0 314 65 661 285 843 534 153 209 216 389 217 621 2 188 -33 307 -124 423 -63
80 -205 168 -333 208 -55 17 -230 41 -275 37 -8 0 -51 -4 -95 -9z"/>
</g>
</svg>
